HIERARCHY
ROOT Hips
{
	OFFSET 15.585500 22.159004 44.358299
	CHANNELS 6 Xposition Yposition Zposition Zrotation Xrotation Yrotation
	JOINT Chest
	{
		OFFSET -0.128500 0.160400 6.566002
		CHANNELS 6 Xposition Yposition Zposition Zrotation Xrotation Yrotation
		JOINT Chest2
		{
			OFFSET 0.000000 0.000000 3.554802
			CHANNELS 6 Xposition Yposition Zposition Zrotation Xrotation Yrotation
			JOINT Neck
			{
				OFFSET 0.000000 0.000000 8.267998
				CHANNELS 6 Xposition Yposition Zposition Zrotation Xrotation Yrotation
				JOINT Head
				{
					OFFSET 0.000000 0.000002 2.173897
					CHANNELS 6 Xposition Yposition Zposition Zrotation Xrotation Yrotation
					End Site
					{
						OFFSET 0.000000 0.000000 7.718697
					}
				}
			}
			JOINT LeftCollar
			{
				OFFSET 2.057500 0.117599 5.946301
				CHANNELS 6 Xposition Yposition Zposition Zrotation Xrotation Yrotation
				JOINT LeftShoulder
				{
					OFFSET 4.957699 0.000000 0.000000
					CHANNELS 6 Xposition Yposition Zposition Zrotation Xrotation Yrotation
					JOINT LeftElbow
					{
						OFFSET 0.000000 0.000000 -8.465500
						CHANNELS 6 Xposition Yposition Zposition Zrotation Xrotation Yrotation
						JOINT LeftWrist
						{
							OFFSET 0.000000 -0.000002 -14.594898
							CHANNELS 6 Xposition Yposition Zposition Zrotation Xrotation Yrotation
							End Site
							{
								OFFSET 0.000000 0.000000 -2.173901
							}
						}
					}
				}
			}
			JOINT RightCollar
			{
				OFFSET -3.048500 -0.728800 6.604099
				CHANNELS 6 Xposition Yposition Zposition Zrotation Xrotation Yrotation
				JOINT RightShoulder
				{
					OFFSET -3.710299 0.000000 0.000000
					CHANNELS 6 Xposition Yposition Zposition Zrotation Xrotation Yrotation
					JOINT RightElbow
					{
						OFFSET 0.000000 0.000000 -10.450901
						CHANNELS 6 Xposition Yposition Zposition Zrotation Xrotation Yrotation
						JOINT RightWrist
						{
							OFFSET 0.000000 0.000000 -12.539200
							CHANNELS 6 Xposition Yposition Zposition Zrotation Xrotation Yrotation
							End Site
							{
								OFFSET 0.000000 -0.000002 -2.173901
							}
						}
					}
				}
			}
		}
	}
	JOINT LeftHip
	{
		OFFSET 2.442599 -0.601400 -2.767502
		CHANNELS 6 Xposition Yposition Zposition Zrotation Xrotation Yrotation
		JOINT LeftKnee
		{
			OFFSET 0.000000 -0.000002 -17.033703
			CHANNELS 6 Xposition Yposition Zposition Zrotation Xrotation Yrotation
			JOINT LeftAnkle
			{
				OFFSET 0.000000 -0.000002 -19.318800
				CHANNELS 6 Xposition Yposition Zposition Zrotation Xrotation Yrotation
				End Site
				{
					OFFSET 0.000000 -8.281900 0.000000
				}
			}
		}
	}
	JOINT RightHip
	{
		OFFSET -3.126200 -0.601400 -2.283501
		CHANNELS 6 Xposition Yposition Zposition Zrotation Xrotation Yrotation
		JOINT RightKnee
		{
			OFFSET 0.000000 -0.000002 -16.919401
			CHANNELS 6 Xposition Yposition Zposition Zrotation Xrotation Yrotation
			JOINT RightAnkle
			{
				OFFSET 0.000000 -0.000002 -18.035900
				CHANNELS 6 Xposition Yposition Zposition Zrotation Xrotation Yrotation
				End Site
				{
					OFFSET 0.000000 -9.230099 0.000000
				}
			}
		}
	}
}
MOTION
Frames: 7
Frame Time: 0.041667
18.404598 39.072899 10.049095 13.885913 4.698478 -33.512364 -0.128501 0.160398 6.566010 -13.293428 5.209761 15.793631 -0.000001 -0.000003 3.554801 -5.299151 -9.967954 -2.267743 0.000000 -0.000001 8.267997 45.361277 7.128147 -14.175241 -0.000000 0.000005 2.173894 3.666616 3.974912 6.680893 2.057506 0.117602 5.946306 -21.834061 0.070456 9.606149 4.957699 0.000007 0.000000 5.035638 -6.978990 -78.802686 -0.000005 0.000001 -8.465501 -91.556746 -166.076746 -166.892298 0.000006 0.000003 -14.594899 57.161054 -29.979428 62.651652 -3.048502 -0.728799 6.604102 21.567227 -1.350883 -4.664167 -3.710293 0.000002 -0.000007 27.986410 -15.750377 111.259240 0.000009 0.000009 -10.450912 -166.310803 -61.137590 -144.763633 -0.000002 0.000003 -12.539193 -6.208890 -18.254152 -37.268538 2.442597 -0.601400 -2.767497 151.791829 25.478004 88.191621 -0.000003 -0.000002 -17.033703 -228.417590 -33.206286 52.806658 -0.000000 0.000004 -19.318802 98.379825 44.714786 118.280694 -3.126200 -0.601404 -2.283492 -150.307602 -1.357138 -109.193886 -0.000001 0.000000 -16.919401 142.942568 -12.984183 -142.900275 0.000001 -0.000005 -18.035900 -11.569246 48.424802 -125.126170
18.403500 39.076603 10.048592 13.849692 4.654879 -33.524252 -0.128501 0.160402 6.566010 -13.273569 5.212184 15.806349 -0.000001 -0.000000 3.554809 -5.237921 -9.952857 -2.252476 0.000000 0.000002 8.267998 45.283451 7.117960 -14.128829 -0.000003 0.000003 2.173901 3.702842 3.818396 6.548508 2.057504 0.117601 5.946305 -21.920114 0.135493 9.623722 4.957698 0.000012 0.000008 5.281142 -6.885656 -79.246792 -0.000004 0.000003 -8.465505 -92.070786 -165.746097 -166.723456 -0.000003 0.000005 -14.594893 55.382022 -30.377461 63.226638 -3.048501 -0.728794 6.604100 21.664336 -1.261761 -4.752871 -3.710295 0.000006 0.000000 27.907704 -15.782269 111.442452 0.000005 0.000006 -10.450909 -166.138040 -61.159536 -144.602809 0.000002 -0.000000 -12.539192 -6.238807 -18.301050 -37.339804 2.442599 -0.601395 -2.767498 151.820625 25.467127 88.146433 -0.000004 -0.000005 -17.033703 -228.366924 -33.147782 52.858848 -0.000003 0.000001 -19.318800 98.351070 44.674932 118.295243 -3.126203 -0.601401 -2.283496 -150.284775 -1.407321 -109.167719 -0.000000 0.000003 -16.919399 142.956624 -12.980684 -142.887557 -0.000000 -0.000000 -18.035898 -11.575373 48.424060 -125.119695
18.401999 39.080597 10.048096 13.813346 4.612341 -33.532435 -0.128501 0.160395 6.566001 -13.252346 5.213455 15.815201 0.000000 0.000007 3.554806 -5.182974 -9.934508 -2.238075 0.000002 0.000002 8.267995 45.200109 7.107010 -14.075877 0.000000 0.000003 2.173895 3.746523 3.663789 6.414769 2.057504 0.117604 5.946304 -22.007281 0.196725 9.638713 4.957699 -0.000003 -0.000001 5.538957 -6.798717 -79.689053 -0.000004 -0.000002 -8.465498 -92.583754 -165.391788 -166.537238 0.000001 0.000002 -14.594897 53.486327 -30.814081 63.723616 -3.048500 -0.728800 6.604097 21.769847 -1.174238 -4.810339 -3.710294 0.000003 0.000007 27.811497 -15.833196 111.598106 0.000004 0.000011 -10.450900 -165.961890 -61.181303 -144.444226 0.000001 0.000006 -12.539190 -6.269911 -18.354930 -37.412938 2.442592 -0.601401 -2.767498 151.851416 25.457998 88.101975 -0.000000 0.000001 -17.033703 -228.301614 -33.071107 52.917451 -0.000004 0.000005 -19.318802 98.299413 44.636922 118.301786 -3.126206 -0.601405 -2.283499 -150.260911 -1.456066 -109.140037 -0.000001 -0.000003 -16.919401 142.969547 -12.976001 -142.874730 -0.000000 -0.000003 -18.035900 -11.580553 48.423627 -125.114394
18.399998 39.084908 10.047493 13.777952 4.571750 -33.536813 -0.128506 0.160399 6.566003 -13.230274 5.212831 15.819538 -0.000002 0.000001 3.554804 -5.134994 -9.913459 -2.225007 -0.000001 -0.000005 8.267996 45.114301 7.095106 -14.017893 -0.000001 0.000000 2.173899 3.796526 3.513619 6.282315 2.057505 0.117599 5.946303 -22.091846 0.252012 9.652023 4.957692 0.000008 0.000003 5.807016 -6.715989 -80.128098 -0.000000 0.000002 -8.465501 -93.088737 -165.011114 -166.329819 0.000003 -0.000002 -14.594908 51.443697 -31.295152 64.104399 -3.048501 -0.728802 6.604100 21.879080 -1.089460 -4.837103 -3.710293 0.000001 -0.000001 27.703012 -15.899330 111.726261 0.000010 0.000007 -10.450899 -165.784865 -61.202320 -144.290656 -0.000005 0.000006 -12.539194 -6.301143 -18.414801 -37.485557 2.442590 -0.601399 -2.767503 151.883121 25.450577 88.059286 -0.000001 -0.000006 -17.033701 -228.224241 -32.978680 52.980469 -0.000004 0.000001 -19.318802 98.228079 44.601405 118.301253 -3.126204 -0.601402 -2.283498 -150.236841 -1.502335 -109.111432 -0.000001 0.000000 -16.919399 142.981022 -12.969858 -142.861944 0.000000 -0.000002 -18.035898 -11.584324 48.423319 -125.110733
18.397602 39.089500 10.046997 13.744416 4.533697 -33.537001 -0.128498 0.160410 6.566000 -13.207951 5.210004 15.819070 -0.000003 -0.000005 3.554809 -5.094396 -9.890911 -2.213232 0.000000 0.000005 8.268004 45.029986 7.081710 -13.957381 -0.000002 0.000002 2.173906 3.850653 3.369779 6.153467 2.057505 0.117608 5.946308 -22.169954 0.299854 9.664910 4.957700 0.000003 0.000005 6.082397 -6.636055 -80.563611 -0.000004 0.000001 -8.465502 -93.580750 -164.601904 -166.098152 0.000003 -0.000002 -14.594896 49.224470 -31.824850 64.334556 -3.048501 -0.728798 6.604103 21.987424 -1.008595 -4.835898 -3.710295 0.000004 -0.000003 27.588790 -15.976746 111.829246 0.000003 0.000003 -10.450911 -165.607717 -61.221970 -144.143465 0.000001 0.000003 -12.539189 -6.332049 -18.478952 -37.556447 2.442600 -0.601395 -2.767503 151.914308 25.444632 88.019371 -0.000004 -0.000010 -17.033705 -228.137252 -32.873762 53.046189 -0.000000 0.000002 -19.318802 98.141308 44.569006 118.294765 -3.126200 -0.601397 -2.283501 -150.213250 -1.545152 -109.082205 -0.000004 0.000002 -16.919399 142.990543 -12.962376 -142.849022 -0.000002 -0.000002 -18.035898 -11.586680 48.423524 -125.109108
18.394699 39.094402 10.046406 13.713264 4.498331 -33.532916 -0.128499 0.160400 6.566004 -13.185779 5.204992 15.813654 -0.000002 0.000000 3.554802 -5.061352 -9.868141 -2.202991 -0.000001 -0.000001 8.267994 44.950657 7.066466 -13.896578 -0.000001 0.000007 2.173899 3.906151 3.232810 6.029242 2.057508 0.117601 5.946301 -22.238439 0.339717 9.678053 4.957695 -0.000000 0.000001 6.361954 -6.557655 -80.995341 -0.000004 0.000003 -8.465499 -94.055694 -164.162668 -165.839602 0.000001 0.000001 -14.594900 46.802611 -32.405863 64.385973 -3.048500 -0.728802 6.604095 22.090784 -0.932363 -4.812110 -3.710293 0.000001 0.000001 27.475532 -16.059819 111.912294 0.000010 0.000009 -10.450908 -165.432291 -61.240111 -144.004553 -0.000003 0.000003 -12.539194 -6.362781 -18.545734 -37.625504 2.442597 -0.601398 -2.767498 151.943459 25.439256 87.983601 -0.000002 -0.000004 -17.033699 -228.043364 -32.760152 53.113016 -0.000002 -0.000001 -19.318798 98.043684 44.539735 118.283631 -3.126194 -0.601399 -2.283505 -150.190327 -1.583910 -109.052453 -0.000001 -0.000003 -16.919401 142.997988 -12.953555 -142.836071 -0.000004 -0.000002 -18.035898 -11.587684 48.424050 -125.109395
18.391195 39.099503 10.045696 13.684658 4.465590 -33.524372 -0.128501 0.160398 6.566003 -13.164175 5.198200 15.803343 0.000000 0.000007 3.554803 -5.035628 -9.846158 -2.194507 -0.000002 -0.000001 8.267997 44.880043 7.049000 -13.837869 0.000000 0.000000 2.173894 3.893700 3.062079 5.879173 2.057503 0.117600 5.946306 -22.294948 0.371482 9.692687 4.957697 0.000005 0.000008 6.642077 -6.479943 -81.423416 -0.000004 0.000001 -8.465500 -94.510564 -163.692915 -165.552420 0.000001 0.000006 -14.594893 44.039260 -33.197004 64.242219 -3.048504 -0.728798 6.604099 22.185761 -0.861121 -4.771597 -3.710290 -0.000000 0.000006 27.369449 -16.143292 111.980951 0.000005 0.000006 -10.450905 -165.259596 -61.256497 -143.874451 -0.000004 0.000006 -12.539190 -6.393843 -18.613114 -37.693714 2.442597 -0.601402 -2.767500 151.969592 25.433340 87.952906 0.000002 -0.000006 -17.033707 -227.945638 -32.641877 53.179522 0.000002 0.000005 -19.318804 97.940200 44.513849 118.269110 -3.126206 -0.601403 -2.283499 -150.168225 -1.618570 -109.022202 -0.000003 -0.000003 -16.919399 143.003315 -12.943345 -142.822903 0.000002 -0.000003 -18.035898 -11.587291 48.425146 -125.111813
